# xmcd
#
# Track frame offsets: 
#        150
#        19785
#        42822
#        59423
#        86514
#        102420
#        122369
#        139365
#        158981
#        180363
#        197590
#        213852
#
# Disc length: 3118 seconds
#
# Revision: 0
# Processed by: cddbd v1.5.2PL0 Copyright (c) Steve Scherf et al.
# Submitted via: ExactAudioCopyFreeDBPlugin 1.0
#
DISCID=9b0c2c0c
DTITLE=Omnium Gatherum - Years in Waste
DYEAR=2005
DGENRE=Melodic Death Metal
TTITLE0=The Fall Went Right Through Here
TTITLE1=Waste of Bereavement
TTITLE2=Misanthropic (Let The Crown Fall)
TTITLE3=Black Seas Cry
TTITLE4=It's A Long Night
TTITLE5=No Moon and No Queen
TTITLE6=Gravesilence
TTITLE7=The Nolan's Fati
TTITLE8=More Withering
TTITLE9=Auguries Gone
TTITLE10=It's A Long Night (demo)
TTITLE11=No Moon and No Queen (demo)
EXTD=
EXTT0=
EXTT1=
EXTT2=
EXTT3=
EXTT4=
EXTT5=
EXTT6=
EXTT7=
EXTT8=
EXTT9=
EXTT10=
EXTT11=
PLAYORDER=
